<?xml version="1.0" encoding="UTF-8"?>
<svg version="1.1" viewBox="0 0 2048 819" width="1000" height="400" xmlns="http://www.w3.org/2000/svg">
<path transform="translate(1059,124)" d="m0 0h17l11 6 7 8 3 9v8l-4 12-6 17-4 9-11 23-14 27-15 25-10 16-12 17-14 19-9 11-13 15-9 10-7 8-10 10-11 9-13 12-17 13-18 13-22 14-11 6-6 5 4 10 8 16 6 11 9 17 4 7 7 10 5 9 7 11 4 5 4 6 8 11 10 13 7 9 2 4 4 2 10 11 7 8 6 5 4 3v2l4 2 4 4 1 4v14l-4 9-8 6-8 3h-18l-10-3-16-8-9-7-11-10-12-12-8-10-11-16-12-19-18-34-8-17-10-22v-2h-4l-5 12-8 20-4 8-3 8-9 19-10 19-7 12-7 11-7 9-9 11-9 10-12 12-16 12-15 9-16 8-15 6-15 5-11 2-11 1h-31l-22-3-26-8-23-11-11-7-14-10-12-11-16-16-11-14-9-14-6-10-7-14-7-18-7-31-2-27v-84l1-33 3-7 3-3 7-2h30l39 1 8 7 10 12 11 14 9 10 11 14 10 13 8 10 10 11 8 11 10 12 8 10 10 13 13 17 13 14 11 14 10 12 4 5 4 2h15l9-4 8-7 12-18 3-8 5-7 5-13 4-8 10-23 7-17v-5l-7-6-4-10-1-4v-12l4-8 8-7 6-3 11-3h4l3-10 6-15 3-6 2-11 5-14 11-33 10-28 7-21 8-23 10-29v-5l-12 2-16 6-15 8-15 11-7 7-6 8-7 12-7 22-3 18v39l-1 13-7 10-8 3h-15l-8-3-8-7-7-10-6-15-3-14v-19l2-23 7-24 8-18 8-11 7-12 9-10 7-8 11-11 15-11 16-9 7-4 24-8 23-4 14-1h21l24 3 16 4 7 6 4 8v15l-6 22-2 9-6 17-2 9-4 11-5 18-9 27-7 20-11 33-5 20 7-3 17-13 10-8 11-9 21-21 9-12 9-11 10-13 10-15 7-10 8-13 12-21 10-18 20-38 8-16 6-10 9-10z" fill="#00C3FE"/>
<path transform="translate(1178,342)" d="m0 0h12l13 5 11 11 5 15 7 2 13 1 15-2 27-6 10-4 8 3 5 5 3 7 2 10-1 15-3 13-9 18-12 19-9 19-6 17-3 8-3 13-3 10v11l3 6 5 3 5 1 13-3 10-6 8-6 4-5h2l2-4 8-11 9-15 5-11-1-41-1-23v-46l3-5 5-4 11-3 15-1 13 2 12 5 3 3v147l1 15 4-2 9-10 5-9 12-19 16-29 3-6-1-8-6-20-1-8v-13l2-14 6-18 6-10 7-8 10-5 14-1 9 2 6 4 5 6 3 7 1 6v24l-3 16-4 13-1 11 2 4h8l16-5 8-5 4-9 7-27 6-21 6-9 9-6 8-2h17l13 4 6 5 3 6v8l-3 12-6 19-1 7-4 11-3 15-6 19-10 38-5 21 1 7 3 6 4 2 10-1 12-6 12-11 10-10 8-11 7-12 7-19 9-32 5-20 9-29 4-14 3-6 7-6 8-3 10-1h11l12 3 6 4 4 8v8l-1 3v7l10-5v-2h2v-2h2v-2l8-7 9-6 7-4 22-5h12l10 1 10 5 8 9 3 12v17l-3 19-3 14-5 19-14 48-6 28 1 5 3 3h6l11-7 7-6 11-14 10-13 7-10 6-6 10 1 5 6 1 2v6l-1 3 3 3-1 9-3 11-8 15-8 10-11 12-10 9-15 10-17 8-19 5h-22l-14-4-9-6-5-8-3-9-1-5v-16l3-19 6-31 9-33 4-12 3-15-1-9-4-4-9 1-14 8-8 9-10 17-7 19-6 21-5 15-4 16-5 17-4 15-6 19-6 7-8 4-12 3h-12l-10-2-10-4-4-5-2-11-6 1-10 7-16 8-18 5-12 2h-12l-16-5-10-6-7-9-3-7-1-5v-29l2-14 9-27 1-12-11 1-7 1h-20l-4 4-8 17-11 19-11 17-7 9-9 11-9 10-10 9-14 10-12 5-4 1h-16l-8-3-6-4-5-6-5-15-4-16-4 1-13 13-13 10-14 8-11 5-19 5-5 1h-20l-13-4-9-5-8-8-5-9-2-14v-13l3-18 7-25 6-16 6-14 8-16 4-10v-3l-24-4h-7l-4 8-11 28-5 12-6 12-5 9-12 20-10 13-9 10-10 10-19 14-21 11-11 4-15 4-25 4h-23l-10-1-16-5-11-6-8-7-9-10-10-19-5-18-1-6v-28l6-27 8-22 11-21 9-14 7-9 9-10 7-7 14-10 11-6 10-4 13-3 9-1h17l14 3 11 4 10 7 8 9 5 10 1 5v26l-4 15-5 15-9 14-7 7h-2l-2 4h-2v2l-15 9-16 8-19 7-10 3-13 3-6 3v9l8 11 7 5 17 4h13l10-2 14-4 8-5 8-4 11-8 6-5h2l2-4 7-8 7-9 11-18 4-7 8-16 7-16 4-15-2-7-8-9-5-13-1-4v-20l5-12 4-6 10-6zm-117 63-16 8-7 6-10 15-7 14-4 11v9l1 1 9-1 11-4 18-10 10-8 8-10 4-10v-9l-3-7-4-4z" fill="#FD09B2"/>
<path transform="translate(285,52)" d="m0 0h34l2 1 2 36 64 1 5 3 5 10 1 49 14 4h6l11 6 10 5 8 7 9 11 4 15v20l-4 14-8 11-8 8-12 7-13 5-2 1h-8l-9 1-1 308-3 7-8 4h-164l-8-4-4-6-2-9v-32l1-75v-46l-1-115-10-3-11-6-5-5-6-5-7-11-4-11-1-8v-13l2-10 6-12 9-10 9-6 8-4 9-3 1-8 1-82 5-8 7-4 62-1 1-34zm9 122-13 4-9 6-10 10-7 14-4 14 1 11 7 18 8 10 7 7 14 7 5 1h18l13-4 11-6 9-8 8-16 3-13v-8l-3-13-7-13-7-8-14-9-13-4z" fill="#00C4FE"/>
<path transform="translate(1059,124)" d="m0 0h17l11 6 7 8 3 9v8l-4 12-6 17-4 9-11 23-14 27-15 25-10 16-12 17-14 19-9 11-13 15-9 10-7 8-10 10-11 9-13 12-17 13-18 13-22 14-11 6-6 5 4 10 8 16 6 11 9 17 4 7 7 10 5 9 7 11 4 5 4 6 8 11 10 13 7 9 2 4 4 2 10 11 7 8 6 5 4 3v2l4 2 4 4 1 4v14l-4 9-8 6-8 3h-18l-10-3-16-8-9-7-11-10-12-12-2-5-7-9-8-12-11-18-12-22-8-16-2-6-4-7-1-5-1-3-3-4-3-5-2-7v-2l-3-1-1-2-5 1-1 6h-2l-2 6-1 5h-2l-3 10-6 13-4 9-9 19-9 17-6 11-3 3-2-4 6-10 3-7 1-5 1-153-6 1v-2h-5v-1l10-3 4-8 18-53 6-17 4-11v-3h2l-1-3h2l-1-3h2l-1-3h2v-7l2-3 2-7 2-1-1-3 2-6h2l-1-3h2l-1-3h2l-1-3 1-2h2l-1-3h2l-1-3 1-3h2l-1-4 1-2h2l-1-3 3-7 2-1-1-3 2-7 1-3 4-11v-10h-7l-2 1-2-1v2l-4-1-1 2-2-1-1 2h-5l-1 2-5 1-17 9-11 8-9 8-3-3 5-5v-57l-6 3-1-2h-3l9-6 15-8 19-7 9-1v-2h6l9-2 10-1 6-1h30l23 4 9 4 6 7 2 5v15l-6 22-2 9-6 17-2 9-4 11-5 18-9 27-7 20-11 33-5 20 7-3 17-13 10-8 11-9 21-21 9-12 9-11 10-13 10-15 7-10 8-13 12-21 10-18 20-38 8-16 6-10 9-10z" fill="#01B1FD"/>
<path transform="translate(641,96)" d="m0 0 11 2 6 4 6 11-1 7-6 11-11 16-6 1-16-11-12-5-4-1h-19l-10 3-13 7-10 10-8 14-2 12-1 5 2 15 8 16 7 8 11 7 9 6 2 4-6 7-6 8-10 15-11 16-11 15-14 20-9 12-7 6-9 2h-50l-15-1-6-4-3-7-1-17-1-4 1-7 1-9 16-8 14-8 12-11 9-14 6-15 4-16v-15l-4-16-6-15-6-9-5-5-12-11-14-8-12-5-3-4v-20l3-6 7-6 5-1z" fill="#00C4FE"/>
<path transform="translate(1062,358)" d="m0 0h17l14 3 11 4 10 7 8 9 5 10 1 5v26l-4 15-5 15-9 14-7 7h-2l-2 4h-2v2l-15 9-16 8-19 7-10 3-13 3-6 3v9l8 11 7 5 17 4h13l10-2 14-4 8-5 8-4 11-8 6-5h2l2-4 7-8 7-9 11-18 2-3h2l-1 5-14 21-8 10-11 11h-2v2l-18 12-2 1h5v37l-5 4 13-8 14-10 11-9 9-9 14-16 1 2-8 11-9 10-10 10-19 14-21 11-11 4-15 4-25 4h-23l-10-1-16-5-11-6-8-7-9-10-10-19-5-18-1-6v-28l6-27 8-22 11-21 9-14 7-9 9-10 7-7 14-10 11-6 10-4 13-3zm-1 47-16 8-7 6-10 15-7 14-4 11v9l1 1 9-1 11-4 18-10 10-8 8-10 4-10v-9l-3-7-4-4z" fill="#0290F0"/>
<path transform="translate(1178,342)" d="m0 0h12l13 5 11 11 5 15 7 2 13 1 15-2 27-6 10-4 8 3 5 5 3 7 2 10-1 15-3 13-9 18-12 19-9 19-6 17-3 8-3 13-4 12v12l3 5 7 3 14-1 12-5 10-8 8-8 11-15 8-13 3-3-1 4-8 14v38l1 2 6-5 6-1 2 4-7-1-7 7-5 6-11 9-14 9-17 8-13 4-19 3-15-2-10-2-8-5-7-7-5-9-2-14v-13l3-18 7-25 6-16 6-14 8-16 4-10v-3l-24-4h-7l-4 8-11 28-5 12-6 12-5 9-12 20-5 3-18 20-11 10-17 12-13 8-2-1 6-4 1-37-8 1 2-2 8-4 11-8h2v-2l8-7 7-7 12-17 8-13 1-7 8-16 7-16 4-15-2-7-8-9-5-13-1-4v-20l5-12 4-6 10-6z" fill="#A95CD8"/>
<path transform="translate(1059,124)" d="m0 0h17l11 6 7 8 3 9v8l-4 12-6 17-4 9-6 12h-2l-2 6-8 15-6 11-11 20-10 15-13 21-8 10-8 12-10 12-7 8-9 11-28 28-8 7-6 5h-2v2l-14 11-6 4-4 1-1-2-1-22v-15l1-24-2-1 11-11 3-6h2v-2l5-5 9-11 10-13 12-16 11-17 16-26 12-21 13-25 7-14 7-16 4-10 8-11 8-7z" fill="#0290F0"/>
<path transform="translate(1474,350)" d="m0 0 13 1 8 4 6 7 3 7 1 6v24l-3 16-4 13-1 11 2 4h8l16-5 8-5 4-9 7-27 6-21 6-9 9-6 8-2h17l13 4 6 5 3 6v8l-3 12-5 15-1-4 4-13 1-2v-16l-4-7-9-4-4-1h-18l-15 6-2 4-4 7-6 21-5 21-5 13-8 6-11 4-6 1h-13l-2-1-1-8 2-5 2-12 4-13 2-18-1-18-7-11-8-5-10-2-13 4-6 4h-2l-2 4-8 13-6 25-1 7v8l6 25 2 9v7l-7 14-12 21-11 18-8 11-7 11-2 6 1 37 3 1 13-11 7-7 6-8h2l2-4 11-15 8-13 9-15 8-14 3-8 5-3 5-1h20l8-2h10l1 5-3 10h-1v-12l-11 1-7 1h-20l-4 4-8 17-11 19-11 17-7 9-9 11-9 10-10 9-14 10-12 5-4 1h-16l-8-3-6-4-5-6-5-15-4-16-4 1-13 13-13 10-14 8-11 5-19 5-5 1h-20l-10-3v-1l9 1 11 1 19-3 15-5 19-9 11-8 8-7h2l2-4h2l2-4 6-6h5l-3-1-6 2-1 3-3 1-1-3v-38l9-15v-2l-7 12-8 11-8 10-9 9-11 7-8 3-14 1-8-4-3-5v-12h1l2 12 5 5 7 2 13-3 10-6 8-6 4-5h2l2-4 8-11 9-15 5-11-1-41-1-23v-46l3-5 5-4 11-3 15-1 13 2 12 5 3 3v147l1 15 4-2 9-10 5-9 12-19 16-29 3-6-1-8-6-20-1-8v-13l2-14 6-18 6-10 7-8 10-5z" fill="#F039C5"/>
<path transform="translate(1178,342)" d="m0 0h12l13 5 2 3-4 1v78l1-1 9 1 3 2h-9l-2 1-6 17-11 28-8 16-5 9-12 20-5 3-18 20-11 10-17 12-13 8-2-1 6-4 1-37-8 1 2-2 8-4 11-8h2v-2l8-7 7-7 12-17 8-13 1-7 8-16 7-16 4-15-2-7-8-9-5-13-1-4v-20l5-12 4-6 10-6z" fill="#9365DD"/>
<path transform="translate(1290,364)" d="m0 0 9 3 5 5 3 7 2 10-1 15-3 13-9 18-12 19-9 19-6 17-3 8-3 13-4 12v12l3 5 7 3 14-1 12-5 10-8 8-8 11-15 8-13 3-3-1 4-8 14v38l1 2 6-5 6-1 2 4-7-1-7 7-5 6-11 9-14 9-17 8-13 4-10 2-4-1h3v-63l1-13-1-22v-106l-1-7h-28l-6-2v-1l18 1 15-2 27-6z" fill="#C253D3"/>
<path transform="translate(914,549)" d="m0 0 4 2v3h2v3l4 2 6 8 10 13 11 12 4 5 8 7 5 3 5 4 4 3v2l4 2 4 4 1 4v14l-4 9-8 6-4 2h-11l-12-1-20-9-10-7-7-6-2-4-4-5 4-18v-15l2-11 1-21z" fill="#0190F0"/>
<path transform="translate(1589,269)" d="m0 0h15l10 4 10 8 6 9 2 5 1 13-2 12-7 11-8 6-11 5-4 1h-9l-12-3-9-6-7-8-4-11v-16l3-10 8-11 7-5z" fill="#FD09B2"/>
<path transform="translate(1334,490)" d="m0 0 1 3-9 15v38l1 2 6-5 6-1 2 4-7-1-7 7-5 6-11 9-14 9-17 8-13 4-10 2-4-1h3v-63l2-3 1 12 3 5 7 3 14-1 12-5 10-8 8-8 11-15 8-13z" fill="#C254D4"/>
<path transform="translate(592,153)" d="m0 0h10l11 3 10 9 4 8v8l-5 13-7 9-7 6-2 1h-17l-9-5-7-7-2-4-1-19 2-8 4-6h2l2-4 6-3z" fill="#00C4FE"/>
<path transform="translate(299,195)" d="m0 0 14 3 10 7 5 5 3 13-1 12-4 8-7 7-10 3h-11l-9-2-7-5-6-9-1-3v-15l3-8 6-8 8-5z" fill="#00C4FE"/>
<path transform="translate(1144,487)" d="m0 0h3l1 2v42l-4 8-12 12-16 12-14 9-5 3-2-1 6-4 1-37-8 1 2-2 8-4 11-8h2v-2l8-7 7-7z" fill="#4379E7"/>
<path transform="translate(1093,363)" d="m0 0 6 1 11 7 5 4 8 14 4 10v15l-8 32-11 18-11 12-2-1 7-8-1-99-8-4z" fill="#437AE8"/>
<path transform="translate(1175,425)" d="m0 0 3 4 1 52-8 16-7 13-9 14-2 5-7 6 1-4v-44h-2l2-5 5-8 1-7 8-15 1 3-4 9 8-16 6-13z" fill="#7B6EE3"/>
<path transform="translate(1174,346)" d="m0 0 4 1v64l-3 3-10-12-5-10-3-7h-1v-18l5-12 5-5 4-3z" fill="#7A6EE3"/>
<path transform="translate(1053,359)" d="m0 0h9v1l-22 5-12 5-10 6-11 9-10 9-13 16-10 16-8 15-9 24-4 16-2 10v28l4 17 5 13 6 11 8 10 8 7 14 7 10 3 11 2h25l13-2h11v1l-25 4h-23l-10-1-16-5-11-6-8-7-9-10-10-19-5-18-1-6v-28l6-27 8-22 11-21 9-14 7-9 9-10 7-7 14-10 11-6 10-4z" fill="#01B3FE"/>
<path transform="translate(1764,425)" d="m0 0 2 3-1 13-3 15-5 14-4 18-4 16-3 16-3 14-1 8v19l5 15 6 7 10 4 9 2h20l26-7 14-8 8-5 2 1-11 8-19 9-19 5h-22l-14-4-9-6-5-8-3-9-1-5v-16l3-19 6-31 9-33 4-12 3-15z" fill="#F139C5"/>
<path transform="translate(883,155)" d="m0 0h6l2 4h-3l1 38 1 63 3-9h1l1 8-6 17-3-3-1-16v-27l-1-70z" fill="#0290F0"/>
<path transform="translate(887,508)" d="m0 0h2l5 8v5l-4-5h-1v25l-1 66-4-5-5-7 2-9 1-15 1-4 1-16 1-40z" fill="#0290F0"/>
<path transform="translate(1667,394)" d="m0 0 1 4-7 26-16 56-5 13-7 11-8 10-8 9-8 7-14 9-8 3-10-1-5-4-2-5v-10l6-27 4-14 3-9h1l-1 9-4 13-7 30 1 7 3 6 4 2 10-1 12-6 12-11 10-10 8-11 7-12 7-19 9-32 5-20z" fill="#F139C5"/>
<path transform="translate(1031,153)" d="m0 0 1 3-7 14-7 16-12 22-9 17-16 26-10 16-12 17-10 13-11 14-8 10h-2v2l-3-1 9-10 7-10 11-13 15-22 7-10 8-13 12-21 10-18 20-38zm-107 170m-1 1m-1 1m-1 1m-1 1m-1 1m-1 1m-1 1 1 3-6 4 2-4z" fill="#01B2FE"/>
<path transform="translate(1515,497)" d="m0 0h1l-1 9-5 21-1 8v22l3 12 7 11 10 6 12 3h19l21-5 8-3 16-8 2 1-13 8-12 5-21 5-6 1h-12l-16-5-10-6-7-9-3-7-1-5v-29l2-14z" fill="#F139C5"/>
<path transform="translate(1096,363)" d="m0 0 6 1 11 7 9 10 5 10 1 5v26l-4 15-5 15-9 14-7 7h-2l-2 4h-2l-1 2-1-3 8-7 6-8 9-15 8-32v-15l-7-16-6-9-14-9z" fill="#0193F0"/>
<path transform="translate(1732,431)" d="m0 0 2 1-6 7-10 17-7 19-6 21-5 15-4 16-5 17-4 15-6 19-3 2 3-12 6-19 4-14 8-29 5-18 4-13 6-17 9-16 8-10z" fill="#F139C5"/>
<path transform="translate(1075,205)" d="m0 0 1 3-12 24-13 23-11 18-14 21-13 18-8 10-7 9-10 12-2-2 6-7 4-5h2l2-4 11-14 8-12 9-12 9-15 11-17 10-18 9-16z" fill="#01B2FE"/>
<path transform="translate(1589,269)" d="m0 0h15l10 4 4 4-15-6h-10l-11 4-10 6-6 8-2 4-1 17 1 10 6 10 9 6 13 4 13 1-4 2h-9l-12-3-9-6-7-8-4-11v-16l3-10 8-11 7-5z" fill="#F139C5"/>
<path transform="translate(891,358)" d="m0 0 2 4-4 2v55l5-2-2 5-5 2-2-4v-52l2-6z" fill="#0290F0"/>
<path transform="translate(1158,522)" d="m0 0 1 2-8 11-9 10-10 10-19 14-14 7 2-4 19-13 14-11 10-10 7-8z" fill="#0895F0"/>
<path transform="translate(1210,500)" d="m0 0h1v6l-4 14-1 10v29l3 10 2 6-4-2-4-7-2-14v-13l3-18z" fill="#AB59D7"/>
<path transform="translate(1301,420)" d="m0 0 1 3-6 12-12 19-9 19-6 17-3 8-3 13-3 10h-1l1-11 7-24 3-5 6-17 7-14 9-14 7-13z" fill="#F139C5"/>
<path transform="translate(1151,471)" d="m0 0h2l-1 5-14 21-8 10-11 11h-2v2l-18 12-5 2-3-1 4-3 8-4 11-8 6-5h2l2-4 7-8 7-9 11-18z" fill="#0196F1"/>
<path transform="translate(1867,482)" d="m0 0 10 1 4 4-1 2-4-3-6-1-6 4-7 9-10 14-8 10-9 10-11 7-9 1v-1l7-2 10-7 6-5 11-14 10-13 7-10z" fill="#F139C5"/>
<path transform="translate(876,321)" d="m0 0 1 3-7 23-4 11-3 14 7-3 17-13 5-4 2 1-12 11-10 7-6 3h-5v-7l5-18 5-14 4-12z" fill="#00C4FE"/>
<path transform="translate(1788,359)" d="m0 0h5l-4 2-16 5-10 5-10 7-10 10-9 7h-3l-1-2 1-14 2-6h1v8l-1 3v7l10-5v-2h2v-2h2v-2l8-7 9-6 7-4z" fill="#F136C4"/>
<path transform="translate(1290,364)" d="m0 0 9 3-2 1h-9l-9 4-32 6h-20l-6-2v-1l18 1 15-2 27-6z" fill="#F139C5"/>
<path transform="translate(1613,568)" d="m0 0h6l3 13 4 4 10 3 7 1h12l15-4 8-5-2 4-6 4-9 3-6 1h-12l-10-2-10-4-4-5-2-11z" fill="#F139C5"/>
<path transform="translate(868,438)" d="m0 0 2 1-9 7 4 10 8 16 6 11 7 13-1 2-5-8-7-11-4-9-11-22 1-4z" fill="#00C3FE"/>
<path transform="translate(1068,443)" d="m0 0v3l-7 6-10 7-17 9-12 4h-5l-2-2v-7l2-4 1 9 9-1 11-4 18-10 10-8z" fill="#02B1FE"/>
<path transform="translate(1023,507)" d="m0 0 3 1-8 4v9l8 11 7 5 17 4 13 1v1h-16l-15-4-8-6-6-7-4-9v-6l2-2z" fill="#01B4FE"/>
<path transform="translate(1205,430)" d="m0 0 25 3 8 3-1 6-4 9-7 14-1-3 9-19 1-6-24-4h-7l-2 1 1-3z" fill="#F139C5"/>
<path transform="translate(1119,446)" d="m0 0 1 4-9 15-8 8h-2l-2 4h-2l-1 2-1-3 8-7 6-8 8-13z" fill="#0197F2"/>
<path transform="translate(1884,503)" d="m0 0h1l-1 9-3 11-8 15-8 10-2 1 2-5 7-11 7-14 3-12z" fill="#F139C5"/>
<path transform="translate(1831,372)" d="m0 0 3 3 2 10v17l-3 19h-1v-44z" fill="#F139C5"/>
<path transform="translate(1096,363)" d="m0 0 6 1 11 7 9 10 5 10 1 7-4-4-8-16-5-5-10-7-5-2z" fill="#0197F2"/>
<path transform="translate(915,167)" d="m0 0 4 1v11l-1 1-1 9-3-3-1-3v-13h2z" fill="#0292F0"/>
<path transform="translate(1733,373)" d="m0 0h1v8l-1 3v7l10-5v-2h2l-2 4-9 7h-3l-1-2 1-14z" fill="#F139C5"/>
<path transform="translate(1701,358)" d="m0 0h11l12 3 6 4 3 5-1 3-5-7-12-5-14-2z" fill="#F139C5"/>
<path transform="translate(1594,431)" d="m0 0h1l-1 12-7 22h-1l1-9z" fill="#F139C5"/>
<path transform="translate(1093,576)" d="m0 0h2l-1 3-13 5-10 3h-5l4-3 16-5z" fill="#01B2FE"/>
<path transform="translate(1016,459)" d="m0 0h1l1 9 13-1v2l-9 3h-5l-2-2v-7z" fill="#01B3FE"/>
<path transform="translate(1691,359)" d="m0 0h10v1l-13 3-9 5-4 4 1-4 7-6z" fill="#F139C5"/>
<path transform="translate(968,608)" d="m0 0 9 6v2l4 2 4 4-1 4-5-5-5-6-6-5z" fill="#01B4FE"/>
<path transform="translate(1151,471)" d="m0 0h2l-1 5-6 9-4 2 2-5z" fill="#189EF2"/>
<path transform="translate(1050,129)" d="m0 0 2 1-16 16 2-5 9-10z" fill="#01A8F9"/>
<path transform="translate(892,352)" d="m0 0 2 1-12 11-3 2-3-1 12-10z" fill="#00C1FE"/>
<path transform="translate(1144,485)" d="m0 0v3l-7 10h-2l2-5 3-5z" fill="#0194F1"/>
<path transform="translate(925,323)" d="m0 0v3l-3 5-6 6h-2l1-3 2-1 3-5z" fill="#02AAFB"/>
<path transform="translate(1023,507)" d="m0 0 3 1-8 4-2 6-2-1v-6l2-2z" fill="#01B1FE"/>
<path transform="translate(1619,278)" d="m0 0 4 2 6 8 2 4-1 3-8-13z" fill="#F139C5"/>
<path transform="translate(890,617)" d="m0 0 4 2 10 10-2 1-12-12z" fill="#00BCFE"/>
<path transform="translate(1103,526)" d="m0 0m-2 1 2 1-4 4-5 2-3-1 4-3z" fill="#019EF5"/>
<path transform="translate(890,506)" d="m0 0 5 5 3 5h-3l-5-7z" fill="#00C2FE"/>
<path transform="translate(949,294)" d="m0 0v3l-4 5-6 4 2-4 4-5z" fill="#01B5FE"/>
</svg>
